<svg width="128" height="128" xmlns="http://www.w3.org/2000/svg"><path d="M23.9 114c-12.1-2.17-14.1-18.3-.774-21.9-1.7-7.98 6.72-14 14.9-10.2 10.4-17.6 33.5-3.27 27.6 12.2 15.9-.002 13.2 20.1.745 20.2z" fill="none" stroke="#000" stroke-width="6"/><g fill="none" stroke="#f6a71c" stroke-linecap="round" stroke-width="5.59"><path d="M50.217 62.674a20.544 20.544 0 0116.478-23.219A20.544 20.544 0 0190.556 54.97a20.544 20.544 0 01-14.552 24.503" stroke-miterlimit="0" paint-order="fill markers stroke" stroke-width="5.9813"/><path d="M102.54 59.892h10.69M70.868 17.841v10.69M102.005 29.504l-7.554 7.554M40.694 30.039l7.554 7.554M94.515 83.004l7.554 7.554M27.961 60.106h10.69" stroke-width="5.9813"/></g></svg>