<svg width="128" height="128" xmlns="http://www.w3.org/2000/svg"><g fill="none" stroke-width="6"><path d="M29.4 113c-17.3-3.08-20.1-26.1-1.1-31.2-2.42-11.4 9.56-19.9 21.2-14.5 14.9-25 47.7-4.65 39.3 17.3 22.7-.003 18.8 28.7 1.06 28.7z" stroke="#000"/><g stroke="#f6a71c" stroke-linecap="round"><path d="M72.1 45.9A13.7 13.7 0 0184 34.3a13.7 13.7 0 0114.4 8.38 13.7 13.7 0 01-4.25 16.1" stroke-miterlimit="0" paint-order="fill markers stroke"/><path d="M107 48.1h7.15M85.9 19.9v7.15M107 27.7l-5.05 5.05M65.7 28.1l5.05 5.05M102 63.5l5.05 5.05"/></g></g></svg>