<svg width="128" height="128" xmlns="http://www.w3.org/2000/svg"><g fill="none" stroke-linecap="round" stroke-width="6"><path d="M31.9 82.6C12.8 79.18 9.6 53.7 30.68 48 28 35.4 41.28 25.9 54.28 31.9c16.5-27.7 52.9-5.16 43.6 19.2 25.1-.003 20.9 31.8 1.18 31.8l-11.9-.09m-44.9-.09l-10.2-.182" stroke="#000"/><g stroke="#2885c7"><path d="M54.2 83.2c-1.62 2.22-3.24 4.43-4.85 6.65M65.9 83.6c-1.62 2.22-3.24 4.43-4.85 6.65M77.6 83.6c-1.62 2.22-3.24 4.43-4.85 6.65M41.3 102c-1.62 2.22-3.24 4.43-4.85 6.65M53 103c-1.62 2.22-3.24 4.43-4.85 6.65M64.7 103c-1.62 2.22-3.24 4.43-4.85 6.65"/></g></g></svg>