<svg width="128" height="128" xmlns="http://www.w3.org/2000/svg"><g fill="none" stroke-linecap="round" stroke-width="6"><path d="M31.9 78.6C12.8 75.18 9.6 49.7 30.68 44 28 31.4 41.28 21.9 54.28 27.9c16.5-27.7 52.9-5.16 43.6 19.2 25.1-.003 20.9 31.8 1.18 31.8l-11.9-.09m-44.9-.09l-10.2-.182" stroke="#000"/><g stroke="#2885c7"><path d="M31.8 92.1c-1.98 3.65-3.96 7.29-5.94 10.9M44.5 92.3c-1.98 3.65-3.96 7.29-5.94 10.9M86.3 91.9c-1.98 3.65-3.96 7.29-5.94 10.9M99.1 92.1c-1.98 3.65-3.96 7.29-5.94 10.9"/></g><path d="M73.1 63.5c-5.13 7.22-10.3 14.4-15.4 21.7l15.7.21-18.1 30.3" stroke="#f6a71c"/></g></svg>