<svg width="128" height="128" xmlns="http://www.w3.org/2000/svg"><g fill="none" stroke="#71b8d4" stroke-linecap="round" stroke-width="4.4"><path d="M95.8 73.1c-2.46-2.42-4.93-4.84-7.39-7.26m7.09-7.64c-2.42 2.46-4.84 4.93-7.26 7.39m14.7.078l-39 .196m-28.2-7.3c2.46 2.42 4.93 4.84 7.39 7.26m-7.09 7.64c2.42-2.46 4.84-4.93 7.26-7.39m-14.7-.078l39-.196m-8.83 30.1c2.42-2.46 4.84-4.93 7.26-7.39m7.64 7.09c-2.46-2.42-4.93-4.84-7.39-7.26m-.078 14.7l-.196-39m7.3-28.2c-2.42 2.46-4.84 4.93-7.26 7.39m-7.64-7.09c2.46 2.42 4.93 4.84 7.39 7.26m.078-14.7l.196 39M81.8 92l-.09-10.4m10.4-.392l-10.4.09m10.3 10.5c-9.25-9.15-18.5-18.3-27.7-27.5m-14.8-25.1l.09 10.4m-10.4.393l10.4-.091M39.3 39.4c9.25 9.15 18.5 18.3 27.7 27.5m-27.5 15l10.4-.09m.392 10.4l-.09-10.4m-10.5 10.3c9.15-9.25 18.3-18.5 27.5-27.7m25.1-14.8l-10.4.09m-.393-10.4l.091 10.4m10.5-10.3c-9.15 9.25-18.3 18.5-27.5 27.7"/></g></svg>